<svg xmlns="http://www.w3.org/2000/svg" xmlns:xlink="http://www.w3.org/1999/xlink" width="42" height="41" viewBox="0 0 42 41">
    <defs>
        <path id="6co2mpatza" d="M22.482 33.6l.127.054 1.597-1.194.366 2.023 1.64-1.224.324 2.054 1.68-1.255.325 2.054 1.68-1.255.325 2.054 1.68-1.255.325 2.054 1.68-1.255.338 2.134 1.661-1.138-.445 2.274c-.105.537-.627 1.072-1.165 1.192 0 0-.131.038-.388.077-1.459.22-17.205-5.338-17.205-5.338-1.276-.418-3.157-1.234-4.208-2.056 0 0-12.074-8.956-12.515-9.245-.44-.289-.4-.683.1-.902.5-.22 4.6-1.568 4.712-1.62-.445-.322-3.28-2.54-4.287-3.37-.186-.153-.282-.381-.023-.559.453-.31 3.377-1.903 4.386-2.38.615-.291 2.221-.974 2.274-1.257.163-.88 1.769-7.702 2.042-8.778.142-.556 1.227-4.019 1.584-5.207.111-.37.643-.332.804-.138.365.438 2.882 3.873 3.151 4.25.307.43 2.316 3.487 2.62 3.808.088.093 2.072-.223 4.381-.326 2.31-.104 4.495 0 4.495 0s1.032-2.417 1.526-3.436c.43-.884 1.746-3.224 1.932-3.532.203-.335.632-.315.837.02.69 1.126 3.834 9.127 3.938 9.68.078.408-.305.86-.52 1.115-.353.42-4.042 4.566-4.331 4.919l.39.553c.285-.294 3.882-4.168 4.395-4.702.179-.186.32-.215.415.05.138.386.643 2.356.768 2.907.347.076 2.488.602 3.201.865.923.34 1.825.745 2.727 1.145.245.11.221.245.034.432-.31.31-4.436 3.68-4.736 3.856.094.054 2.956.29 3.755.39.283.036.365.286.253.552-.445 1.052-3.042 4.022-3.637 4.64-.074.077-4.91-4.64-6.437-6.063-.037.013-.365.496-.307.566.417.516 6.052 5.734 6.744 6.558.252.299.935 1.265 1.061 2.087.126.822-.196 3.089-.36 3.595-.164.506-2.131 1.99-2.253 2.043-.233.103-.417-.025-.408-.29.012-.365.065-1.092.065-1.092s2.088-4.188 2.226-4.654c.029-.097.053-.24-.118-.3-.17-.058-5.413.274-5.886.464-.192.078-.203.234-.11.373.372.55 3.28 4.011 3.28 4.011s.044.867 0 1.29c-.032.301-.265.4-.525.28-1.164-.536-2.322-1.086-3.486-1.619-.49-.224-8.306-3.7-8.306-3.7l-.188 2.721zm-4.74-13.293h2.606c.528 0 .717-.373.42-.836l-3.678-5.74c-.295-.462-.535-.384-.535.171v3.934h-2.606c-.528 0-.717.373-.42.836l3.678 5.74c.295.462.535.383.535-.171v-3.934zm14.909-.809c.556 0 1.007-.47 1.007-1.05 0-.58-.451-1.05-1.007-1.05-.556 0-1.007.47-1.007 1.05 0 .58.45 1.05 1.007 1.05z"/>
    </defs>
    <g fill="none" fill-rule="evenodd">
        <path fill="#ffffff" fill-opacity="0" stroke="#D3DCE6" stroke-width="5" d="M0-191.5c-53.848 0-97.5 43.652-97.5 97.5v1285c0 53.848 43.652 97.5 97.5 97.5h1450c53.848 0 97.5-43.652 97.5-97.5V-94c0-53.848-43.652-97.5-97.5-97.5H0z"/>
        <g>
            <g>
                <mask id="p8speqtlzb" fill="#fff">
                    <use xlink:href="#6co2mpatza"/>
                </mask>
                <g fill="#fff" mask="url(#p8speqtlzb)">
                    <path d="M0 0H42V41H0z"/>
                </g>
            </g>
        </g>
    </g>
</svg>
